<?xml version="1.0" encoding="UTF-8" standalone="no"?>
<!DOCTYPE svg PUBLIC "-//W3C//DTD SVG 1.1//EN" "http://www.w3.org/Graphics/SVG/1.1/DTD/svg11.dtd">
<!-- Created with Vectornator (http://vectornator.io/) -->
<svg height="100%" stroke-miterlimit="10" style="fill-rule:nonzero;clip-rule:evenodd;stroke-linecap:round;stroke-linejoin:round;" version="1.1" viewBox="0 0 1024 896" width="100%" xml:space="preserve" xmlns="http://www.w3.org/2000/svg" xmlns:xlink="http://www.w3.org/1999/xlink">
<defs/>
<g id="Untitled">
<path d="M252.896 740.627C230.836 727.997 210.898 713.333 193.589 695.371C168.116 668.937 148.844 638.662 139.683 602.802C132.795 575.839 132.377 548.731 138.489 521.267C145.002 491.994 157.761 465.929 176.262 442.817C194.063 420.577 215.85 402.699 241.847 390.55C248.177 387.592 250.676 384.221 250.464 376.74C249.912 357.196 250.951 337.614 250.904 318.048C250.767 260.698 250.403 203.348 250.144 145.998C250.103 136.898 250.668 136.259 259.918 136.633C303.396 138.387 346.302 143.373 388.162 156.299C421.295 166.53 453.067 179.525 483.209 196.665C490.725 200.939 498.335 205.064 505.339 210.093C510.295 213.653 514.355 212.901 519.008 209.784C540.992 195.056 564.406 182.891 588.839 172.888C625.288 157.964 662.805 146.883 702.095 141.876C723.558 139.141 745.042 137.646 766.601 136.536C771.596 136.279 774.146 137.76 774.119 143.414C773.817 207.823 773.67 272.233 773.52 336.642C773.487 351.209 773.737 365.778 773.573 380.342C773.525 384.553 774.901 387.077 778.744 388.867C803.834 400.554 825.448 416.903 843.401 437.974C863.137 461.137 877.157 487.188 884.572 516.939C890.682 541.451 891.427 565.902 886.898 590.581C883.35 609.911 877.013 628.339 867.467 645.573C848.231 680.302 821.279 707.889 788.578 730.012C772.356 740.985 754.547 749.184 737.329 758.407C731.934 761.297 730.873 757.965 730.874 753.655C730.875 740.226 730.866 726.796 731.081 713.369C732.635 616.646 731.663 519.917 731.863 423.191C731.873 418.043 730.145 415.986 725.202 415.049C698.256 409.941 672.229 413.168 647.017 423.447C613.545 437.095 583.154 456.019 554.399 477.787C541.324 487.685 529.137 498.587 516.871 509.411C513.2 512.65 510.46 512.427 506.916 509.215C486.165 490.41 464.575 472.635 440.885 457.603C414.155 440.642 386.89 424.631 355.863 416.667C337.128 411.858 318.141 411.545 299.037 414.912C293.808 415.834 292.652 418.34 292.657 423.223C292.781 531.793 292.763 640.363 292.772 748.933C292.772 750.754 292.776 752.574 292.76 754.395C292.713 759.856 290.416 760.563 285.854 758.072C275.092 752.195 264.188 746.577 252.896 740.627M731.512 193.188C730.347 189.537 732.367 185.545 730.534 181.765C715.451 181.485 700.888 184.527 686.536 187.301C653.897 193.611 622.35 203.87 592.101 217.866C565.619 230.12 540.621 244.916 517.066 262.099C513.2 264.919 510.695 264.648 506.881 262.06C495.611 254.412 484.507 246.538 472.729 239.59C444.224 222.775 414.387 209.241 382.842 199.154C356.319 190.672 329.263 185.177 301.656 182.295C292.877 181.378 292.778 181.994 292.773 190.561C292.74 249.034 292.701 307.507 292.701 365.979C292.701 368.194 292.164 370.54 293.568 372.577C295.657 373.556 297.629 372.636 299.606 372.335C321.218 369.048 342.775 370.062 363.909 375.04C398.384 383.16 428.884 400.252 458.755 418.66C475.634 429.062 491.252 441.157 506.915 453.195C510.779 456.164 513.242 456.017 516.915 453.132C546.661 429.767 578.071 409.067 612.197 392.473C647.783 375.171 684.782 366.727 724.311 372.373C730.476 373.254 731.789 371.297 731.774 365.709C731.629 308.603 731.65 251.496 731.512 193.188M784.31 440.617C781.298 438.731 778.286 436.844 774.381 434.399C774.381 519.382 774.381 603.268 774.381 688.108C793.454 673.048 809.782 657.117 822.466 637.627C844.659 603.524 854.105 567.222 843.118 526.862C833.52 491.605 814.679 462.815 784.31 440.617M179.711 587.728C189.394 630.175 215.366 661.173 249.887 688.196C249.887 602.68 249.887 518.73 249.887 434.158C243.733 437.76 238.286 441.317 233.158 445.459C211.413 463.024 195.709 484.939 185.909 511.046C176.695 535.596 173.759 560.767 179.711 587.728Z" fill="#000000" fill-rule="nonzero" opacity="1" stroke="none"/>
</g>
</svg>
